# xmcd CD database file
#
# Track frame offsets:
#	150
#	14727
#	28574
#	39398
#	53130
#	64748
#	79583
#	89162
#	100373
#	114483
#	126263
#	140819
#	151143
#	161693
#	175060
#	187005
#	201045
#	213582
#	223887
#	235862
#	245522
#	255130
#	266699
#	277052
#
# Disc length: 3847 seconds
#
# Revision: 1
# Processed by: cddbd v1.5.1PL2 Copyright (c) Steve Scherf et al.
# Submitted via: CDex 1.51
#
DISCID=650f0518
DTITLE=AGEE,RAY - VOL.#1
DYEAR=1900
DGENRE=Blues
TTITLE0=I BROUGHT IT ALL ON MYSELF
TTITLE1=I BROUGHT IT ALL ON MYSELF(ALT.VERSION)
TTITLE2=FLIRTING BLUES
TTITLE3=IT'S BEDTIME,BABY
TTITLE4=MY LONESOME DAYS ARE GONE
TTITLE5=NO MORE BLUES BLUES SHADOWS FALLING
TTITLE6=THE ONE I LOVE
TTITLE7=DEEP TROUBLE
TTITLE8=BLACK NIGHT IS GONE
TTITLE9=I GOTTA HAVE YOUR LOVE(add:WILMAGENE HILL)
TTITLE10=LOVE'S LIMIT
TTITLE11=THE WOBBLE-LOO
TTITLE12=ANOTHER FOOL SINGS THE BLUES
TTITLE13=WITHOUT A FRIEND
TTITLE14=TILL DEATH DO US PART
TTITLE15=THE DEVIL'S ANGELS
TTITLE16=MY SILENT PRAYER(add:ELY JOHNSON)
TTITLE17=MY SILENT PRAYER(alt.take)(add:ELY JOHNSON)
TTITLE18=TRUE LIPS(add:ELY JOHNSON)
TTITLE19=WHEN THE DEALS GOES DOWN(unreleased)
TTITLE20=ONE TOO MANY(add:FEMALE)
TTITLE21=DREAM QUEEN(add:FEMALE VOCAL GROUP)
TTITLE22=HERE LIES MY LOVE(as:MR.UNDERTAKER)
TTITLE23=?
EXTD=
EXTT0=
EXTT1=
EXTT2=
EXTT3=
EXTT4=
EXTT5=
EXTT6=
EXTT7=
EXTT8=
EXTT9=
EXTT10=
EXTT11=
EXTT12=
EXTT13=
EXTT14=
EXTT15=
EXTT16=
EXTT17=
EXTT18=
EXTT19=
EXTT20=
EXTT21=
EXTT22=
EXTT23=
PLAYORDER=
